<?xml version="1.0" standalone="no"?>
<!DOCTYPE svg PUBLIC "-//W3C//DTD SVG 20010904//EN"
 "http://www.w3.org/TR/2001/REC-SVG-20010904/DTD/svg10.dtd">
<svg version="1.0" xmlns="http://www.w3.org/2000/svg"
 width="506.000000pt" height="506.000000pt" viewBox="0 0 506.000000 506.000000"
 preserveAspectRatio="xMidYMid meet">

<g transform="translate(0.000000,506.000000) scale(0.100000,-0.100000)"
fill="#000000" stroke="none">
<path d="M0 2530 l0 -2530 2530 0 2530 0 0 2530 0 2530 -2530 0 -2530 0 0
-2530z m1880 430 l0 -80 80 0 80 0 0 80 0 80 80 0 80 0 0 -80 0 -80 80 0 80 0
0 80 0 80 160 0 160 0 0 -80 0 -80 80 0 80 0 0 80 0 80 80 0 80 0 0 -80 0 -80
80 0 80 0 0 80 0 80 80 0 80 0 0 -80 0 -80 80 0 80 0 0 -485 0 -485 -80 0 -80
0 0 -80 0 -80 -80 0 -80 0 0 -80 0 -80 -640 0 -640 0 0 80 0 80 -80 0 -80 0 0
80 0 80 -80 0 -80 0 0 485 0 485 80 0 80 0 0 80 0 80 80 0 80 0 0 -80z m-480
-480 l0 -80 -80 0 -80 0 0 80 0 80 80 0 80 0 0 -80z m2400 0 l0 -80 -80 0 -80
0 0 80 0 80 80 0 80 0 0 -80z m-640 -1130 l0 -80 -80 0 -80 0 0 -80 0 -80 80
0 80 0 0 -160 0 -160 80 0 80 0 0 160 0 160 80 0 80 0 0 -80 0 -80 80 0 80 0
0 -240 0 -240 80 0 80 0 0 -160 0 -160 -160 0 -160 0 0 80 0 80 -80 0 -80 0 0
-80 0 -80 -800 0 -800 0 0 80 0 80 -80 0 -80 0 0 -80 0 -80 -160 0 -160 0 0
160 0 160 80 0 80 0 0 240 0 240 80 0 80 0 0 80 0 80 80 0 80 0 0 -160 0 -160
80 0 80 0 0 160 0 160 80 0 80 0 0 80 0 80 -80 0 -80 0 0 80 0 80 640 0 640 0
0 -80z"/>
<path d="M1880 2315 l0 -245 80 0 80 0 0 245 0 245 -80 0 -80 0 0 -245z"/>
<path d="M3000 2315 l0 -245 80 0 80 0 0 245 0 245 -80 0 -80 0 0 -245z"/>
<path d="M1560 630 l0 -160 80 0 80 0 0 160 0 160 -80 0 -80 0 0 -160z"/>
<path d="M3320 630 l0 -160 80 0 80 0 0 160 0 160 -80 0 -80 0 0 -160z"/>
<path d="M1880 550 l0 -80 80 0 80 0 0 -80 0 -80 80 0 80 0 0 80 0 80 -80 0
-80 0 0 80 0 80 -80 0 -80 0 0 -80z"/>
<path d="M3000 550 l0 -80 -80 0 -80 0 0 -80 0 -80 80 0 80 0 0 80 0 80 80 0
80 0 0 80 0 80 -80 0 -80 0 0 -80z"/>
</g>
</svg>
